PathFileType  4	(X/Y/Z) C:\Users\antoi\Documents\MyRepositories\mobilecap\ResultsAnalysis
DataRate	CameraRate	NumFrames	NumMarkers	Units	OrigDataRate	OrigDataStartFrame	OrigNumFrames
100.0	100.0	5	51	mm	100.0	73	145
Frame#	Time	r_knee			r_shank_antsup			r_ankle			r_calc			r_5meta			r_toe			L_knee			L_shank_antsup			L_ankle			L_calc			L_5meta			L_toe			r_sh2			r_sh3			r_sh4			L_sh2			L_sh3			r_thigh1			r_thigh2			r_thigh3			r_thigh4			r_thigh5			L_thigh1			L_thigh2			L_thigh3			L_thigh4			r.ASIS			r.PSIS			L.ASIS			L.PSIS			C7			R_Shoulder			L_Shoulder			R_Sternum			L_Sternum			R_humerus			R_elbow_med			R_elbow_lat			R_forearm			R_wrist_radius			R_wrist_ulna			L_humerus			L_elbow_med			L_elbow_lat			L_forearm			L_wrist_radius			L_wrist_ulna			R_HJC			L_HJC			R_HJC_reg			L_HJC_reg			
		X1	Y1	Z1	X2	Y2	Z2	X3	Y3	Z3	X4	Y4	Z4	X5	Y5	Z5	X6	Y6	Z6	X7	Y7	Z7	X8	Y8	Z8	X9	Y9	Z9	X10	Y10	Z10	X11	Y11	Z11	X12	Y12	Z12	X13	Y13	Z13	X14	Y14	Z14	X15	Y15	Z15	X16	Y16	Z16	X17	Y17	Z17	X18	Y18	Z18	X19	Y19	Z19	X20	Y20	Z20	X21	Y21	Z21	X22	Y22	Z22	X23	Y23	Z23	X24	Y24	Z24	X25	Y25	Z25	X26	Y26	Z26	X27	Y27	Z27	X28	Y28	Z28	X29	Y29	Z29	X30	Y30	Z30	X31	Y31	Z31	X32	Y32	Z32	X33	Y33	Z33	X34	Y34	Z34	X35	Y35	Z35	X36	Y36	Z36	X37	Y37	Z37	X38	Y38	Z38	X39	Y39	Z39	X40	Y40	Z40	X41	Y41	Z41	X42	Y42	Z42	X43	Y43	Z43	X44	Y44	Z44	X45	Y45	Z45	X46	Y46	Z46	X47	Y47	Z47	X48	Y48	Z48	X49	Y49	Z49	X50	Y50	Z50	X51	Y51	Z51	

73	0.72000000	613.39183	461.60616	-52.00696	600.44456	379.92456	-68.55179	311.71491	193.11445	-88.36972	247.74370	225.77507	-127.26760	331.97335	68.59609	-71.35774	388.51138	57.39971	-123.55239	801.00150	492.90829	-338.77486	844.71344	402.19673	-338.01707	808.04541	94.31511	-296.95420	742.90062	63.88771	-245.74669	913.25726	41.15666	-338.51501	956.78478	66.09841	-285.06108	500.73726	317.96190	-51.30482	549.32055	445.61627	-41.17412	458.58006	380.05232	-47.60038	753.20462	404.50440	-340.34616	762.76488	281.59285	-340.24279	713.59540	769.47317	-34.45013	697.51242	660.32454	-34.10319	640.90842	641.77093	-15.32799	601.64345	780.80977	-22.19156	589.78356	665.28405	-32.17313	647.87050	720.88693	-364.82256	700.27701	591.76189	-343.58078	755.35745	757.01839	-398.96022	802.63377	629.94079	-369.65593	747.22119	941.50369	-73.47954	559.71855	986.21997	-161.88689	765.22834	941.54956	-325.05165	557.28367	994.43559	-262.64231	547.19292	1393.01365	-221.18487	670.40488	1372.04202	-55.09034	609.95667	1355.51470	-406.45480	690.50949	1371.00952	-217.07925	690.50819	1370.69662	-259.67269	714.70829	1242.49969	1.10679	707.87274	1022.52554	-32.55950	734.08029	1042.99563	28.00017	860.27229	976.63324	12.11021	961.33285	888.49692	-15.21258	947.52289	865.80160	10.94909	594.63564	1239.21522	-458.65147	508.72538	1031.72261	-357.96681	502.16398	1046.46468	-435.93796	521.63737	934.24196	-457.80928	477.91540	778.29859	-466.45385	449.63859	792.48417	-481.11374	668.65479	864.27593	-104.85323	680.57397	870.13726	-310.88731	683.57421	861.07852	-113.21176	679.56424	874.59782	-279.07704	
74	0.73000000	635.94618	460.10231	-49.76597	622.05720	378.93329	-66.45942	327.96498	201.35873	-86.90072	267.13010	239.20894	-126.10809	339.37531	75.50015	-71.00770	395.76787	60.63880	-122.25287	806.49815	492.78358	-340.05467	849.27584	401.35233	-339.16303	808.17404	94.35082	-297.01985	742.97731	63.90090	-245.71823	913.29710	41.00865	-338.64304	956.38795	65.29393	-285.11066	520.26569	320.17001	-49.12752	572.69838	446.07866	-38.82556	480.14483	383.27257	-46.17537	757.61160	404.89277	-341.57503	765.72133	281.78036	-340.85029	726.84486	770.49960	-34.98607	714.42562	660.50728	-33.34165	657.58680	640.83902	-14.55531	614.52534	778.92679	-23.98247	606.17716	662.89164	-32.22429	656.63966	723.21238	-367.32416	707.18956	593.35352	-345.34340	764.98224	757.62168	-401.01836	810.24106	629.89990	-371.40093	757.67192	942.01495	-76.05252	570.11971	986.19882	-163.25386	775.92381	943.33263	-327.20163	567.84161	995.24974	-263.99807	557.93233	1393.96514	-223.80075	680.16324	1373.59774	-56.99267	622.12517	1356.10632	-408.59922	701.20573	1371.94953	-218.69786	701.47395	1371.54950	-261.23438	723.82516	1243.92457	-0.36607	714.74735	1024.00681	-33.43925	741.05815	1044.29899	27.16944	866.16213	975.63208	12.09152	965.52811	885.27067	-14.33559	951.27597	863.07682	12.09101	608.91804	1239.20886	-460.92383	524.23365	1030.74242	-361.36505	519.15700	1045.02640	-439.52459	541.29010	933.02292	-460.55170	501.39006	776.26469	-469.43931	472.95367	789.70907	-484.48506	679.71162	864.50141	-107.32665	691.34362	871.61993	-313.33925	694.52496	861.18959	-116.52678	690.77910	876.04721	-282.01417	
75	0.74000000	658.65655	459.11355	-47.69723	644.08506	378.52063	-64.53843	345.15941	209.56872	-85.59255	287.33239	251.68633	-125.42151	348.66600	83.01300	-70.51067	405.06460	64.90913	-120.64340	811.33803	492.53953	-341.10262	853.34036	400.53279	-340.05540	808.33682	94.35324	-297.02937	743.03040	63.92614	-245.69057	913.33334	40.88331	-338.71267	955.95350	64.51550	-285.14049	540.38408	322.78103	-46.93761	596.42441	446.93754	-36.66694	502.26070	386.73752	-44.90692	761.54644	405.20418	-342.59808	768.40722	281.90635	-341.33674	739.86208	771.73586	-35.44265	731.28288	660.90286	-32.75704	674.10241	640.12032	-13.93273	627.24936	777.16045	-25.71607	622.46284	660.71042	-32.41825	664.79925	725.47494	-369.34448	713.55548	594.85384	-346.63667	774.04857	757.97465	-402.88327	817.25932	629.65739	-372.88220	767.87306	942.42049	-78.51696	580.22850	986.06511	-164.69334	786.42714	944.88484	-329.19225	578.19434	995.96185	-265.44663	568.51945	1394.80922	-226.37509	689.63992	1374.98144	-58.76542	634.22049	1356.62527	-410.68923	711.77049	1372.80424	-220.21305	712.31839	1372.33043	-262.69380	732.68820	1245.17397	-1.72414	721.45269	1025.32006	-34.22648	747.82271	1045.44647	26.43296	871.80408	974.49501	12.22469	969.41244	881.92359	-13.24123	954.79382	860.25727	13.39685	623.28843	1239.14621	-463.11868	539.86794	1029.61351	-364.87921	536.41306	1043.48905	-443.17841	561.33069	931.78896	-463.27950	525.69781	774.28101	-472.45778	497.01462	786.88391	-487.89164	690.43921	864.63727	-109.72018	701.91736	872.90993	-315.70156	705.18374	861.14170	-119.80089	701.84591	877.34506	-284.87307	
76	0.75000000	681.37241	458.80874	-45.82676	666.39677	378.79839	-62.78540	363.20675	217.63411	-84.54392	307.98330	262.83257	-125.27687	360.29654	90.88322	-69.76579	416.82194	70.07550	-118.72073	815.70778	492.27455	-341.96350	857.00054	399.78356	-340.72753	808.55916	94.31690	-296.98292	743.06328	63.96555	-245.67295	913.36492	40.78708	-338.74972	955.56809	63.82191	-285.14590	561.00919	325.78009	-44.83751	620.32254	448.26487	-34.81115	524.75214	390.46229	-43.81695	765.12754	405.46677	-343.49793	770.89763	282.01166	-341.79035	752.63731	773.27597	-35.86532	747.97763	661.66827	-32.36677	690.41099	639.74305	-13.55054	639.80253	775.63596	-27.43318	638.59058	658.90075	-32.83912	672.43047	727.58698	-370.84970	719.48421	596.30472	-347.54259	782.57678	758.20276	-404.51897	823.78744	629.32629	-374.09594	777.81537	942.74660	-80.71861	590.07112	985.90331	-166.20863	796.73257	946.15767	-330.97561	588.33577	996.63501	-266.99115	578.95711	1395.60536	-228.88890	698.85845	1376.18302	-60.37789	646.23754	1357.06518	-412.73425	722.17673	1373.61651	-221.63356	723.02235	1373.07253	-264.05079	741.24399	1246.21057	-2.93611	728.00351	1026.42579	-34.94065	754.36936	1046.40716	25.77589	877.20272	973.21001	12.50970	973.00789	878.46225	-11.92893	958.07814	857.35534	14.88713	637.75102	1239.01443	-465.22644	555.61547	1028.32691	-368.50770	553.91789	1041.86323	-446.88466	581.73991	930.55098	-465.96046	550.78977	772.38413	-475.47758	521.76852	784.03666	-491.30462	700.77502	864.74172	-111.94823	712.27794	873.99295	-317.89005	715.53763	860.93363	-122.85638	712.69709	878.46161	-287.54768	
77	0.76000000	703.96823	459.30172	-44.17363	688.87825	379.81176	-61.22134	382.08413	225.40141	-83.83289	328.82998	272.38387	-125.64185	374.62663	98.80662	-68.68755	431.33860	75.89297	-116.53396	819.77421	492.06136	-342.69607	860.32310	399.12293	-341.25065	808.83717	94.24890	-296.89469	743.07924	64.02019	-245.67143	913.39145	40.71803	-338.77668	955.29752	63.26144	-285.12971	582.08913	329.08967	-42.98640	644.22020	450.09327	-33.34002	547.45218	394.41150	-42.91799	768.43896	405.69546	-344.34344	773.22439	282.12209	-342.26198	765.16748	775.20364	-36.28277	764.44100	662.92723	-32.15371	706.49504	639.81941	-13.45298	652.17520	774.46150	-29.16762	654.54042	657.58732	-33.53910	679.65860	729.50105	-371.89807	725.07346	597.74077	-348.17995	790.63941	758.40541	-405.91928	829.93015	628.99570	-375.06723	787.50135	943.05441	-82.54856	599.69268	985.82042	-167.78518	806.84205	947.14882	-332.52749	598.27095	997.34265	-268.61172	589.25035	1396.43056	-231.31704	707.86733	1377.21346	-61.81440	658.17731	1357.44193	-414.73729	732.40879	1374.42997	-222.96646	733.57217	1373.81216	-265.30711	749.45723	1247.02602	-3.98282	734.40921	1027.31432	-35.60206	760.69948	1047.17961	25.18229	882.35453	971.77885	12.94170	976.32070	874.89762	-10.40001	961.10111	854.38650	16.59230	652.31147	1238.82049	-467.23719	571.48011	1026.89270	-372.24194	571.66708	1040.18006	-450.62494	602.50819	929.34027	-468.56437	576.51665	770.60321	-478.42208	547.17823	781.21914	-494.69536	710.69429	864.89749	-113.93855	722.41589	874.89036	-319.83593	725.59315	860.61950	-125.54098	723.27202	879.40326	-289.94585	
